<svg width="289" height="289" viewBox="0 0 289 289" fill="none" xmlns="http://www.w3.org/2000/svg">
<path d="M69.3977 137.882L71.7002 137.398C73.2046 137.081 74.3944 135.93 74.7609 134.437L95.7453 48.9448C96.0368 47.757 95.7689 46.501 95.018 45.5356L94.9672 45.4702C94.5314 44.9099 93.9544 44.4757 93.2953 44.2121L92.9409 44.0703L91.0357 43.526L87.9414 42.8119C87.6465 42.7438 87.3447 42.7095 87.042 42.7095H85.3202L83.5359 42.9325C83.2745 42.9652 83.017 43.0236 82.7671 43.1069L81.264 43.6079C80.8857 43.734 80.5284 43.916 80.2039 44.1477L79.1838 44.8764C78.921 45.0641 78.6819 45.2829 78.4718 45.5281L77.3508 46.8359C77.2206 46.9879 77.1019 47.1494 76.9958 47.3191L76.0013 48.9104C75.8636 49.1306 75.7478 49.3637 75.6553 49.6064L73.617 54.957L72.6168 58.7077C72.5579 58.9285 72.5181 59.154 72.4977 59.3816L70.8953 77.2747L68.718 93.6048L66.2685 105.308L64.0911 112.384L62.4581 120.822L61.4673 124.537C61.4022 124.781 61.3604 125.031 61.3424 125.283L61.0973 128.714V130.711C61.0973 131.19 61.1836 131.666 61.352 132.115L61.773 133.238C61.8666 133.488 61.985 133.727 62.1263 133.953L62.8181 135.06C63.119 135.542 63.5189 135.954 63.9913 136.269L64.9076 136.879L65.5329 137.296C66.19 137.734 66.962 137.968 67.7517 137.968H68.5737C68.8506 137.968 69.1267 137.939 69.3977 137.882Z" fill="#B3B3B3" stroke="#373737" stroke-width="6"/>
<path d="M85.5924 65.5714L90.9976 54.5037C91.2028 54.0833 91.4803 53.7022 91.8173 53.3777L98.6564 46.7919L107.094 40.2599L112.388 36.9822C112.668 36.8092 112.968 36.6713 113.281 36.5716L118.446 34.9282C118.679 34.8539 118.919 34.8012 119.162 34.7708L125.329 34H132.95L143.02 34.8165L154.995 36.7217L165.5 38.899L174.131 41.9998C174.437 42.1095 174.728 42.256 174.998 42.4361L177.723 44.2528C178.828 44.9896 180.227 45.1297 181.456 44.6268L185.478 42.9815L190.832 40.4319C191.072 40.3175 191.323 40.2273 191.582 40.1628L196.159 39.0184C196.476 38.9391 196.802 38.899 197.129 38.899H202.624H206.641C207.045 38.899 207.448 38.9604 207.834 39.0811L210.762 39.9962C211.318 40.1699 211.829 40.4628 212.26 40.8544L214.6 42.9815L217.429 45.1031C217.719 45.3207 217.978 45.5768 218.199 45.8643L220.406 48.7332C220.527 48.8903 220.636 49.0562 220.732 49.2295L223.309 53.8682L225.486 59.3116L227.392 66.3879L229.025 74.8251L230.395 81.4829C230.719 83.0565 231.953 84.2835 233.529 84.5986L265.685 91.03C267.614 91.4156 268.976 93.1459 268.898 95.1109L266.312 160.286L263.862 226.422V234.587V239.513C263.862 240.209 263.68 240.893 263.335 241.497L261.891 244.024C261.754 244.264 261.592 244.49 261.408 244.697L260.272 245.975C259.772 246.537 259.124 246.947 258.402 247.157L253.524 248.58C253.16 248.686 252.783 248.74 252.404 248.74H245.68C245.284 248.74 244.89 248.681 244.511 248.566L235.694 245.871C235.422 245.788 235.159 245.676 234.911 245.538L226.031 240.575L219.989 237.554C219.664 237.392 219.362 237.185 219.092 236.941L210.789 229.416L195.82 215.808L183.573 203.016L174.047 191.041L166.922 182.86C166.773 182.689 166.639 182.506 166.521 182.313L164.057 178.264C163.331 177.071 162.036 176.344 160.64 176.344H155.267H142.748H137.649C137.24 176.344 136.834 176.406 136.444 176.529L132.49 177.778C132.073 177.91 131.681 178.108 131.329 178.367L128.32 180.574C127.961 180.836 127.649 181.157 127.396 181.522L122.879 188.047L115.259 198.389L103.828 210.637L92.5 220.5L77 232L64.9076 239.214L51.5714 245.202L39.8682 249.012L35.9885 250.306C35.3215 250.528 34.7275 250.927 34.27 251.461L33.7341 252.086C33.4774 252.386 33.3362 252.767 33.3362 253.162V253.251C33.3362 253.823 33.0133 254.345 32.5022 254.601C32.0095 254.847 31.4217 254.805 30.9687 254.492L28.9712 253.109C28.4416 252.742 28.0084 252.253 27.7084 251.683L20.4603 237.912C20.158 237.337 20 236.698 20 236.049V234.456C20 234.008 20.1259 233.57 20.3633 233.19C20.9485 232.253 22.0988 231.84 23.1463 232.189L24.8275 232.749C25.2354 232.885 25.6625 232.954 26.0925 232.954H27.589C27.971 232.954 28.3511 232.9 28.7177 232.792L32.5024 231.679C32.6951 231.622 32.8833 231.551 33.0653 231.466L36.488 229.869C36.7449 229.749 36.9882 229.602 37.214 229.431L44.7672 223.701L48.5776 220.435L51.2813 217.485C51.4742 217.275 51.644 217.044 51.7878 216.798L55.3818 210.637L59.7365 200.567L66.5406 180.97L69.8066 164.64L73.8892 139.601L76.3387 109.39L78.7882 91.4273L81.7238 76.4823C81.7626 76.285 81.8161 76.091 81.884 75.9018L85.5924 65.5714Z" fill="#B3B3B3" stroke="#373737" stroke-width="6"/>
<path d="M136.97 162.71L145.247 152.933C147.058 150.794 150.451 151.132 151.803 153.587L155.599 160.475C156.631 162.348 156.007 164.703 154.181 165.818L152.546 166.818L144.73 171.768C144.497 171.915 144.251 172.038 143.994 172.134L133.494 176.072L125.316 178.372C124.963 178.471 124.599 178.521 124.233 178.521H114.57C113.949 178.521 113.336 178.377 112.781 178.099L109.329 176.373C108.936 176.176 108.606 175.871 108.38 175.494L108.097 175.023C107.296 173.688 108.258 171.989 109.815 171.989L117.708 170.9L127.064 168.302C127.358 168.22 127.641 168.105 127.909 167.959L135.832 163.637C136.266 163.401 136.651 163.087 136.97 162.71Z" fill="white"/>
<path d="M230.385 81.3572V96.8707V108.554C230.385 108.748 230.371 108.943 230.343 109.136L229.025 118.1L227.664 127.081L225.486 137.424L223.581 145.861L222.842 150.052C222.791 150.342 222.708 150.625 222.595 150.896L221.691 153.065C221.501 153.52 221.225 153.933 220.876 154.282L220.313 154.845C219.966 155.192 219.495 155.387 219.005 155.387V155.387C218.455 155.387 217.935 155.143 217.583 154.721L217.256 154.328C216.942 153.951 216.727 153.502 216.631 153.021L216.233 151.032L215.688 148.31L215.453 145.718C215.428 145.451 215.377 145.187 215.3 144.931L215.096 144.25C214.779 143.194 214.04 142.315 213.054 141.822L212.996 141.793C212.268 141.429 211.447 141.296 210.641 141.411L208.571 141.706C208.237 141.754 207.91 141.844 207.598 141.974L204.802 143.139L200.447 145.044L195.004 147.494L191.193 149.671L187.383 151.849L183.301 154.57L179.812 156.663C179.419 156.899 178.988 157.066 178.539 157.156L177.842 157.295C176.97 157.469 176.064 157.348 175.269 156.95L174.871 156.751C174.157 156.394 173.565 155.831 173.174 155.135L171.325 151.849L170.128 149.932C170.019 149.759 169.924 149.577 169.843 149.388L168.331 145.861L166.698 142.867L165.065 140.418L164.249 139.057" stroke="#373737" stroke-width="6"/>
<path d="M159.894 176.344L168.603 175.799L175.952 174.438" stroke="#373737" stroke-width="6"/>
<path d="M156.084 63.122L166.715 53.5539C166.885 53.4009 167.068 53.2628 167.261 53.1411L181 44.5" stroke="#373737" stroke-width="6"/>
<path d="M149.368 149.576L144.741 155.02L141.203 158.286L136.849 161.552L132.494 164.273L128.329 166.337C128.11 166.445 127.882 166.534 127.646 166.6L122.424 168.084L117.525 169.172L113.35 170.155C113.049 170.225 112.742 170.261 112.434 170.261H109.904H107.182H104.733V170.261C104.034 170.261 103.644 171.069 104.08 171.616L105.705 173.653C105.782 173.75 105.869 173.841 105.962 173.923L107.435 175.211C107.808 175.537 108.237 175.791 108.702 175.96L110.993 176.793L114.087 177.507C114.382 177.575 114.684 177.61 114.986 177.61H119.158H122C122.282 177.61 122.563 177.58 122.838 177.521L126.234 176.793L133 174.5L139.5 172L145.558 168.628L149.913 165.906L155.356 162.368L156.717 161.552" stroke="#373737" stroke-width="6"/>
<ellipse cx="125.329" cy="121.91" rx="5.71552" ry="9.25369" fill="#373737"/>
<line x1="73.9605" y1="142.229" x2="89.2019" y2="142.773" stroke="#373737" stroke-width="4"/>
<line x1="70.6946" y1="157.47" x2="85.9359" y2="158.015" stroke="#373737" stroke-width="4"/>
<line x1="66.3399" y1="175.978" x2="81.5813" y2="176.522" stroke="#373737" stroke-width="4"/>
<line x1="63.1685" y1="190.136" x2="76.2326" y2="191.225" stroke="#373737" stroke-width="4"/>
<line x1="60.2215" y1="202.709" x2="71.1082" y2="205.43" stroke="#373737" stroke-width="4"/>
<line x1="55.0947" y1="213.159" x2="63.8041" y2="216.969" stroke="#373737" stroke-width="4"/>
<line x1="47.8349" y1="222.073" x2="55.4556" y2="227.517" stroke="#373737" stroke-width="4"/>
<line x1="41.6147" y1="226.704" x2="47.6024" y2="233.236" stroke="#373737" stroke-width="4"/>
<line x1="33.0036" y1="230.63" x2="38.9913" y2="238.251" stroke="#373737" stroke-width="4"/>
<line x1="26.6637" y1="233.646" x2="31.0184" y2="241.811" stroke="#373737" stroke-width="4"/>
</svg>
